<?xml version="1.0" encoding="UTF-8" standalone="no"?><!-- Generator: Gravit.io --><svg xmlns="http://www.w3.org/2000/svg" xmlns:xlink="http://www.w3.org/1999/xlink" style="isolation:isolate" viewBox="0 0 548.817 548.758" width="548.817pt" height="548.758pt"><defs><clipPath id="_clipPath_a88wIPVSB9QpKy03vcRAs1RiWWdM8kDI"><rect width="548.817" height="548.758"/></clipPath></defs><g clip-path="url(#_clipPath_a88wIPVSB9QpKy03vcRAs1RiWWdM8kDI)"><path d=" M 502.145 174.27 C 499.289 167.786 502.231 160.192 508.731 157.336 C 515.215 154.481 522.809 157.438 525.665 163.922 C 533.172 181.008 539.02 199.051 542.954 217.867 C 546.801 236.195 548.817 255.097 548.817 274.367 C 548.817 350.137 518.106 418.747 468.446 468.387 C 418.786 518.047 350.186 548.758 274.426 548.758 C 239.969 548.758 206.973 542.391 176.567 530.766 C 148.829 520.164 123.227 505.164 100.598 486.582 L 81.059 505.516 C 75.985 510.453 67.856 510.336 62.914 505.262 C 61.148 503.465 60.043 501.282 59.555 498.977 L 59.539 498.977 L 42.387 419.176 C 40.926 412.238 45.344 405.418 52.281 403.953 C 54.399 403.5 56.516 403.601 58.465 404.156 L 135.242 426.179 C 142.062 428.128 146.027 435.234 144.078 442.054 C 143.355 444.573 141.926 446.726 140.062 448.304 L 119.097 468.616 C 138.988 484.526 161.402 497.464 185.675 506.737 C 213.21 517.253 243.116 523.018 274.398 523.018 C 343.078 523.018 405.238 495.182 450.248 450.19 C 495.24 405.182 523.076 343.02 523.076 274.34 C 523.076 256.668 521.279 239.512 517.819 223.067 C 514.276 206.149 508.983 189.801 502.143 174.247 L 502.145 174.27 Z  M 247.385 371.59 C 240.311 371.035 235.022 364.852 235.576 357.781 C 236.13 350.707 242.33 345.418 249.385 345.972 C 253.986 346.343 258.139 346.593 261.834 346.73 L 261.967 346.745 C 265.377 346.863 269.51 346.929 274.381 346.929 C 297.799 346.929 319.975 344.41 339.92 339.89 C 344.439 319.949 346.959 297.773 346.959 274.351 C 346.959 269.48 346.892 265.347 346.775 261.937 L 346.759 261.804 C 346.607 258.109 346.357 253.96 346.002 249.355 C 345.447 242.281 350.724 236.101 357.811 235.546 C 364.885 234.991 371.065 240.284 371.62 247.355 C 371.94 251.285 372.19 255.773 372.377 260.812 L 372.377 260.964 C 372.581 266.089 372.678 270.558 372.678 274.37 C 372.678 294.429 370.932 313.749 367.741 331.776 C 374.713 329.222 381.249 326.417 387.28 323.343 C 413.319 310.089 429.432 292.734 429.432 274.386 C 429.432 256.038 413.319 238.667 387.28 225.429 C 358.6 210.831 318.702 201.808 274.38 201.808 C 250.962 201.808 228.786 204.327 208.841 208.847 C 204.321 228.788 201.802 250.964 201.802 274.386 C 201.802 318.722 210.825 358.62 225.423 387.286 C 238.677 413.325 256.032 429.438 274.38 429.438 C 292.728 429.438 310.099 413.325 323.337 387.286 C 326.411 381.255 329.235 374.72 331.77 367.747 C 313.743 370.938 294.442 372.684 274.364 372.684 C 270.567 372.684 266.083 372.583 260.958 372.384 L 260.806 372.384 C 255.767 372.2 251.279 371.931 247.349 371.626 L 247.385 371.59 Z  M 181.026 216.96 C 174.053 219.515 167.518 222.319 161.487 225.394 C 135.448 238.648 119.335 256.003 119.335 274.351 C 119.335 281.003 121.436 287.507 125.331 293.671 C 129.835 300.796 136.62 307.546 145.288 313.679 C 151.065 317.761 152.429 325.741 148.347 331.519 C 144.265 337.297 136.284 338.659 130.522 334.577 C 119.049 326.464 109.909 317.288 103.643 307.327 C 97.124 297.03 93.612 285.925 93.612 274.331 C 93.612 245.483 115.1 220.132 149.828 202.46 C 161.116 196.714 173.871 191.757 187.78 187.71 C 191.812 173.8 196.784 161.05 202.53 149.757 C 220.203 115.03 245.554 93.542 274.401 93.542 C 285.995 93.542 297.081 97.054 307.397 103.573 C 317.358 109.858 326.514 118.995 334.647 130.452 C 338.729 136.214 337.351 144.21 331.589 148.276 C 325.812 152.358 317.831 150.979 313.749 145.218 C 307.616 136.55 300.862 129.761 293.741 125.261 C 287.577 121.362 281.073 119.265 274.421 119.265 C 256.073 119.265 238.702 135.378 225.464 161.417 C 222.39 167.448 219.566 173.983 217.03 180.956 C 235.057 177.764 254.358 176.018 274.436 176.018 C 322.838 176.018 366.905 186.131 399.006 202.463 C 433.733 220.135 455.221 245.486 455.221 274.334 C 455.221 303.182 433.733 328.533 399.006 346.205 C 387.717 351.951 374.963 356.908 361.053 360.955 C 357.022 374.865 352.049 387.615 346.303 398.908 C 328.631 433.635 303.28 455.123 274.432 455.123 C 245.584 455.123 220.233 433.635 202.561 398.908 C 186.233 366.803 176.116 322.752 176.116 274.338 C 176.116 254.279 177.862 234.959 181.054 216.932 L 181.026 216.96 Z  M 71.996 434.79 L 79.773 471.028 L 106.839 444.801 L 71.996 434.79 Z  M 489.276 49.73 L 506.428 129.531 C 507.889 136.469 503.471 143.289 496.533 144.754 C 494.416 145.207 492.299 145.106 490.35 144.551 L 413.573 122.528 C 406.752 120.579 402.788 113.473 404.737 106.653 C 405.459 104.133 406.889 101.981 408.752 100.403 L 429.717 80.091 C 409.842 64.196 387.432 51.263 363.155 41.989 C 335.62 31.473 305.698 25.708 274.417 25.708 C 205.737 25.708 143.577 53.544 98.567 98.536 C 53.575 143.544 25.739 205.706 25.739 274.386 C 25.739 292.058 27.552 309.195 30.997 325.644 C 34.54 342.562 39.833 358.91 46.688 374.484 C 49.544 380.968 46.602 388.562 40.102 391.418 C 33.618 394.273 26.024 391.316 23.168 384.832 C 15.641 367.746 9.813 349.687 5.863 330.871 C 2.016 312.543 0 293.641 0 274.391 C 0 198.621 30.711 130.011 80.371 80.371 C 130.031 30.711 198.631 0 274.391 0 C 308.848 0 341.844 6.367 372.27 17.992 C 400.008 28.594 425.61 43.594 448.239 62.16 L 467.762 43.242 C 472.836 38.305 480.965 38.422 485.907 43.496 C 487.673 45.293 488.778 47.476 489.266 49.781 L 489.282 49.781 L 489.276 49.73 Z  M 476.811 113.941 L 469.033 77.703 L 441.967 103.93 L 476.811 113.941 Z " fill="rgb(0,0,0)"/></g></svg>